<svg xmlns="http://www.w3.org/2000/svg" viewBox="0 0 225.9 172.04"><defs><style>.cls-1,.cls-2{fill:none;stroke-miterlimit:10;}.cls-1{stroke:#d8542c;stroke-width:0.11px;}.cls-2{stroke:#37b44a;stroke-dashoffset:10px;stroke-width:0.06px;stroke-dasharray:8 4 1 4;}</style></defs><title>template_polygon_lid_Pentagon_(5_sides)_D20_x_35_mm</title><g id="Layer_1" data-name="Layer 1"><polygon class="cls-1" points="76.81 113.44 89.55 138.44 87.16 161.24 101.94 171.97 122.88 162.66 143.81 171.97 158.59 161.24 156.19 138.44 168.94 113.44 168.47 112.02 143.47 99.28 184.66 99.28 225.84 99.28 225.84 0.06 19.89 0.06 0.06 6.01 0.06 93.31 19.89 99.28 61.09 99.28 102.28 99.28 77.28 112.02 76.81 113.44"/></g><g id="Layer_2" data-name="Layer 2"><line class="cls-2" x1="19.9" y1="0.05" x2="19.9" y2="99.28"/><line class="cls-2" x1="61.09" y1="0.05" x2="61.09" y2="99.28"/><line class="cls-2" x1="102.28" y1="0.05" x2="102.28" y2="99.28"/><line class="cls-2" x1="143.46" y1="99.28" x2="156.2" y2="138.44"/><line class="cls-2" x1="156.2" y1="138.44" x2="122.87" y2="162.66"/><line class="cls-2" x1="122.87" y1="162.66" x2="89.54" y2="138.44"/><line class="cls-2" x1="89.54" y1="138.44" x2="102.28" y2="99.28"/><line class="cls-2" x1="102.28" y1="99.28" x2="143.46" y2="99.28"/><line class="cls-2" x1="143.46" y1="0.05" x2="143.46" y2="99.28"/><line class="cls-2" x1="184.65" y1="0.05" x2="184.65" y2="99.28"/></g></svg>